<?xml version="1.0" standalone="no"?>
<!DOCTYPE svg PUBLIC "-//W3C//DTD SVG 20010904//EN"
 "http://www.w3.org/TR/2001/REC-SVG-20010904/DTD/svg10.dtd">
<svg version="1.0" xmlns="http://www.w3.org/2000/svg"
 width="353.000000pt" height="439.000000pt" viewBox="0 0 353.000000 439.000000"
 preserveAspectRatio="xMidYMid meet">

<g transform="translate(0.000000,439.000000) scale(0.100000,-0.100000)"
fill="#000000" stroke="none">
<path d="M1680 4010 l0 -270 30 0 30 0 0 270 0 270 -30 0 -30 0 0 -270z"/>
<path d="M1450 4203 c0 -42 26 -468 30 -490 0 -2 14 -3 31 -3 l31 0 -5 53 c-4
28 -11 142 -17 252 -14 247 -14 245 -45 245 -24 0 -25 -3 -25 -57z"/>
<path d="M1941 4028 c-12 -128 -25 -250 -28 -270 -5 -37 -5 -38 26 -38 17 0
31 2 31 4 0 2 11 111 25 242 32 305 32 294 -3 294 l-28 0 -23 -232z"/>
<path d="M1132 4191 c-11 -6 -11 -17 -2 -52 10 -39 76 -276 116 -417 14 -49
17 -53 42 -50 15 2 27 8 27 13 0 6 -31 124 -70 262 -71 256 -76 268 -113 244z"/>
<path d="M2269 4027 c-34 -78 -82 -186 -106 -240 -23 -53 -43 -101 -43 -107 0
-8 31 -30 43 -30 4 0 12 17 112 245 31 72 68 154 81 183 30 65 30 66 0 80 -23
10 -25 7 -87 -131z"/>
<path d="M833 4087 c-13 -5 -23 -13 -23 -16 3 -25 220 -477 231 -478 8 -2 20
1 28 6 12 8 11 18 -9 63 -45 104 -192 423 -199 429 -3 4 -16 2 -28 -4z"/>
<path d="M2467 3831 c-145 -251 -145 -250 -126 -262 27 -17 38 -8 82 69 25 42
84 144 131 225 47 81 86 152 86 157 0 8 -31 30 -42 30 -2 0 -60 -99 -131 -219z"/>
<path d="M1583 3993 c-14 -5 -18 -134 -7 -217 6 -41 10 -46 32 -46 24 0 25 1
18 53 -3 28 -6 86 -6 128 0 77 -7 92 -37 82z"/>
<path d="M1805 3987 c-2 -7 -6 -67 -10 -134 l-6 -123 24 0 c23 0 24 3 31 92
10 149 9 165 -15 171 -11 3 -22 0 -24 -6z"/>
<path d="M1330 3948 c0 -7 12 -66 27 -130 26 -107 30 -117 48 -112 11 4 21 8
23 9 1 1 -10 56 -25 121 -25 105 -31 119 -51 122 -13 2 -22 -2 -22 -10z"/>
<path d="M2085 3950 c-5 -9 -55 -243 -52 -246 1 -1 11 -4 23 -8 19 -6 22 1 43
106 12 62 24 120 27 129 5 17 -32 34 -41 19z"/>
<path d="M548 3936 c-16 -12 -3 -33 140 -229 91 -126 163 -216 171 -214 8 1
18 9 24 18 8 13 -19 55 -131 206 -77 105 -145 200 -151 212 -13 24 -28 26 -53
7z"/>
<path d="M2798 3862 c-18 -26 -86 -128 -152 -226 -111 -167 -118 -180 -101
-193 11 -7 22 -13 26 -13 4 0 75 101 158 224 l150 224 -24 16 c-24 16 -25 15
-57 -32z"/>
<path d="M1078 3884 c-5 -4 21 -75 77 -211 11 -25 18 -30 34 -26 12 3 21 9 21
14 0 6 -21 59 -46 119 -33 80 -51 110 -63 110 -10 0 -20 -3 -23 -6z"/>
<path d="M2294 3763 c-26 -49 -53 -99 -61 -112 -13 -20 -13 -25 -2 -32 25 -15
34 -10 59 39 14 26 41 75 60 110 30 53 33 64 20 72 -8 5 -18 10 -22 10 -4 0
-28 -39 -54 -87z"/>
<path d="M833 3773 c-7 -2 -13 -9 -13 -14 0 -7 112 -182 130 -202 8 -9 40 2
40 14 0 12 -132 209 -139 208 -3 0 -12 -3 -18 -6z"/>
<path d="M280 3725 c-6 -8 -10 -19 -8 -24 1 -5 86 -93 186 -196 l184 -188 21
21 21 21 -189 191 c-104 104 -192 190 -196 190 -3 0 -12 -7 -19 -15z"/>
<path d="M2515 3629 c-64 -97 -75 -134 -39 -127 21 4 148 204 139 218 -15 25
-38 3 -100 -91z"/>
<path d="M2857 3532 c-103 -103 -187 -192 -187 -198 0 -7 7 -17 16 -25 13 -11
42 14 209 181 190 189 194 195 175 212 -11 10 -21 18 -22 18 -2 0 -88 -84
-191 -188z"/>
<path d="M581 3616 c-9 -10 7 -33 78 -107 86 -90 91 -93 108 -76 17 16 14 21
-72 107 -49 50 -93 90 -96 90 -4 0 -12 -6 -18 -14z"/>
<path d="M2687 3506 c-82 -89 -85 -94 -68 -110 17 -16 22 -12 97 71 43 49 83
91 88 95 10 7 -10 38 -24 38 -4 0 -46 -42 -93 -94z"/>
<path d="M1622 3535 c-7 -15 -8 -26 -2 -30 6 -4 13 1 16 9 3 9 15 16 25 16 17
0 19 -8 19 -60 0 -45 -4 -62 -15 -66 -30 -12 -14 -24 30 -24 25 0 45 5 45 10
0 6 -4 10 -10 10 -6 0 -10 28 -10 65 0 50 3 65 15 65 7 0 18 -8 24 -17 12 -23
25 -11 17 15 -7 20 -48 32 -112 32 -23 0 -34 -6 -42 -25z"/>
<path d="M1506 3541 c-3 -5 1 -11 9 -15 8 -3 15 -14 15 -25 0 -13 -9 -20 -31
-23 -36 -6 -49 14 -30 43 10 17 8 19 -29 19 -22 0 -40 -4 -40 -10 0 -5 4 -10
9 -10 15 0 24 -120 10 -136 -17 -21 -6 -26 35 -19 32 6 52 25 26 25 -5 0 -10
13 -10 29 0 26 17 40 51 41 10 0 17 -60 7 -66 -4 -3 -8 -10 -8 -16 0 -6 13 -8
38 -3 46 8 48 10 30 28 -18 18 -23 114 -7 133 10 12 5 14 -29 14 -23 0 -43 -4
-46 -9z"/>
<path d="M1286 3520 c-47 -9 -76 -40 -76 -82 0 -36 24 -83 45 -92 25 -9 63 -7
70 4 3 6 18 10 32 10 23 0 25 3 19 31 -4 20 -1 38 6 47 11 13 8 14 -27 8 -49
-10 -53 -13 -31 -29 18 -13 14 -42 -9 -50 -22 -9 -54 22 -61 57 -11 64 34 99
78 59 10 -9 18 -12 18 -7 0 19 -13 54 -19 53 -3 -1 -24 -5 -45 -9z"/>
<path d="M1953 3520 c-32 -13 -65 -69 -58 -100 7 -31 59 -80 85 -80 79 0 125
101 69 155 -28 28 -65 38 -96 25z m65 -32 c17 -17 15 -69 -4 -96 -29 -42 -74
-22 -74 33 0 57 46 95 78 63z"/>
<path d="M3035 3339 c-110 -93 -201 -174 -203 -178 -1 -4 6 -15 17 -25 19 -17
22 -16 103 56 46 40 136 118 201 172 64 55 117 102 117 105 -1 8 -26 41 -31
41 -2 0 -94 -77 -204 -171z"/>
<path d="M133 3471 c-10 -16 7 -33 159 -156 156 -125 172 -136 186 -121 14 14
14 18 2 30 -22 20 -329 266 -332 266 -2 0 -8 -8 -15 -19z"/>
<path d="M2115 3480 c-3 -5 0 -10 6 -12 15 -5 -21 -128 -38 -128 -26 0 -12
-17 27 -33 l40 -15 -6 23 c-3 13 -3 34 1 46 l7 22 19 -24 18 -24 10 28 c16 42
14 48 -16 41 -22 -6 -25 -4 -20 10 4 10 7 20 7 22 0 2 9 4 20 4 11 0 27 -11
36 -25 21 -33 32 -32 26 3 -3 24 -12 30 -68 49 -35 11 -67 17 -69 13z"/>
<path d="M1120 3469 c-34 -14 -36 -17 -18 -32 22 -17 49 -112 35 -126 -18 -18
-2 -22 34 -10 44 15 45 17 27 32 -24 18 -51 117 -37 134 14 16 -3 17 -41 2z"/>
<path d="M380 3450 c-12 -7 2 -27 70 -97 47 -48 90 -89 95 -90 6 -2 17 1 25 7
12 8 -2 27 -75 100 -49 49 -92 90 -95 90 -3 0 -12 -5 -20 -10z"/>
<path d="M2852 3338 c-84 -83 -91 -93 -77 -107 14 -14 24 -7 107 77 82 81 91
93 78 106 -13 13 -26 4 -108 -76z"/>
<path d="M958 3408 c-31 -11 -36 -23 -14 -31 19 -8 49 -102 41 -128 -6 -16 -4
-21 6 -16 120 49 119 48 119 83 0 43 -11 43 -30 1 -25 -53 -45 -46 -68 21 -15
44 -17 63 -9 71 14 14 -7 14 -45 -1z"/>
<path d="M2377 3361 c5 -21 -42 -121 -57 -121 -25 0 -5 -18 45 -43 53 -26 57
-26 80 -11 30 20 23 37 -9 24 -22 -8 -66 -4 -66 7 0 18 56 113 67 113 23 0 14
19 -17 35 -38 20 -49 19 -43 -4z"/>
<path d="M725 3274 c-54 -39 -66 -54 -41 -54 9 0 30 -21 46 -46 23 -36 27 -51
19 -65 -5 -11 -16 -19 -24 -19 -19 0 -75 83 -75 110 0 21 -1 21 -34 -7 -40
-33 -44 -43 -16 -43 31 0 36 -28 11 -53 -21 -21 -23 -21 -36 -4 -7 11 -11 25
-8 33 8 21 -9 17 -39 -10 -32 -27 -35 -36 -10 -36 22 -1 86 -86 78 -106 -8
-20 7 -17 38 7 32 25 32 31 4 44 -30 13 -34 47 -8 63 27 17 50 1 50 -34 0 -30
11 -30 36 -3 10 12 52 44 92 71 71 48 82 66 62 98 -10 17 -13 15 -25 -24 -14
-42 -42 -56 -61 -32 -21 29 -17 39 11 32 30 -8 31 -3 8 35 -20 33 -37 39 -28
9 8 -25 -22 -28 -32 -4 -9 24 26 47 60 40 31 -6 36 8 8 24 -27 14 -30 13 -86
-26z"/>
<path d="M2527 3270 c7 -26 -46 -110 -69 -110 -29 0 -21 -13 24 -39 34 -20 40
-21 34 -6 -9 24 50 126 69 118 29 -10 15 16 -19 36 -41 26 -45 26 -39 1z"/>
<path d="M2624 3214 c7 -19 -48 -103 -76 -113 -18 -7 -17 -9 16 -35 33 -25 36
-25 36 -7 0 30 11 51 26 51 8 0 14 -9 14 -20 0 -27 14 -25 34 5 21 32 20 38
-3 30 -27 -8 -37 13 -17 33 16 16 19 15 37 -7 10 -13 19 -32 19 -42 0 -26 16
-24 24 4 5 18 -4 31 -45 70 -51 48 -76 60 -65 31z"/>
<path d="M1149 3140 c-40 -76 -112 -143 -194 -182 -36 -16 -67 -33 -70 -38 -3
-4 4 -34 15 -66 31 -89 68 -248 81 -349 18 -138 7 -267 -35 -433 -87 -339 -98
-528 -39 -644 16 -33 38 -35 128 -12 94 24 344 29 434 10 80 -17 154 -51 213
-97 20 -16 39 -29 42 -29 3 0 29 11 58 24 223 100 411 124 595 76 51 -13 95
-21 99 -18 14 15 45 160 55 265 23 217 -24 442 -125 601 -23 37 -28 58 -36
173 -7 90 -7 165 0 238 13 124 23 168 56 234 14 26 22 52 19 57 -3 5 -28 9
-54 9 -26 -1 -64 4 -84 10 -61 20 -116 98 -133 186 -3 19 -10 35 -15 35 -4 0
-76 -18 -158 -39 -82 -22 -192 -44 -243 -51 -51 -6 -115 -18 -142 -26 -26 -8
-58 -14 -70 -14 -63 0 -244 68 -316 120 -15 11 -33 20 -38 20 -6 0 -25 -27
-43 -60z m123 -26 c34 -20 97 -47 138 -61 76 -25 124 -27 258 -7 l42 6 0 -346
0 -346 -342 2 -343 3 -7 111 c-5 75 -20 157 -44 250 -20 77 -38 148 -40 159
-4 16 5 25 48 44 60 27 176 138 197 189 7 17 17 32 21 32 5 0 37 -16 72 -36z
m910 -79 c36 -65 113 -115 179 -115 26 0 30 -3 24 -17 -5 -10 -17 -49 -28 -88
-16 -58 -20 -103 -21 -262 l-1 -193 -297 0 -298 0 0 348 0 348 69 12 c38 7
127 28 197 46 l129 32 15 -40 c8 -23 22 -54 32 -71z m-474 -1192 c1 -266 0
-483 -2 -483 -2 0 -26 15 -53 33 -27 18 -83 44 -123 57 -66 22 -93 25 -225 25
-100 0 -184 -6 -252 -19 -56 -10 -107 -15 -112 -12 -16 10 -31 102 -31 186 0
111 15 207 61 388 22 86 42 186 45 222 3 36 7 71 10 78 3 10 76 12 341 10
l338 -3 3 -482z m632 470 c0 -9 18 -49 40 -89 88 -160 127 -344 116 -539 -7
-133 -35 -261 -56 -258 -8 1 -49 9 -90 18 -57 13 -103 16 -195 12 -128 -6
-207 -24 -334 -76 -41 -17 -75 -31 -77 -31 -2 0 -4 221 -4 490 l0 490 300 0
c273 0 300 -1 300 -17z"/>
<path d="M1317 2893 c-3 -16 -12 -37 -21 -48 -14 -20 -14 -20 -38 1 -13 12
-38 29 -55 38 l-33 17 0 -36 c0 -40 -10 -43 -48 -16 -67 46 -69 46 -70 -12 -2
-84 16 -134 59 -169 l39 -31 -38 -17 c-20 -10 -46 -27 -56 -39 l-19 -21 34 1
c27 0 30 2 14 8 -18 7 -17 9 10 27 22 14 46 19 92 18 35 0 66 -3 68 -6 3 -3 0
-18 -7 -33 -12 -27 -14 -27 -78 -22 -48 3 -58 2 -40 -5 14 -5 46 -10 72 -11
30 -2 54 -9 68 -22 l22 -20 -18 31 c-27 47 -14 64 48 64 29 0 63 3 76 6 19 6
22 3 22 -25 0 -20 -10 -42 -29 -63 -28 -31 -31 -32 -61 -21 -30 11 -31 11 -17
-5 8 -9 20 -30 26 -47 11 -29 11 -29 6 -2 -4 19 -1 27 9 27 8 0 16 -12 19 -27
3 -24 4 -22 6 8 0 22 9 43 21 54 11 10 22 26 25 36 5 14 15 18 43 17 20 -1 60
4 87 12 28 7 56 14 62 16 24 6 0 36 -45 55 l-44 19 36 41 c37 40 37 41 34 119
-3 92 -15 100 -63 50 -16 -16 -32 -30 -36 -30 -4 0 -9 19 -11 43 l-3 42 -46
-48 -46 -48 -26 39 c-15 21 -27 43 -27 50 0 23 -18 12 -23 -15z m85 -118 c29
-56 30 -63 19 -105 -14 -55 -33 -70 -83 -70 -52 0 -88 35 -88 84 0 20 17 73
40 123 l41 87 20 -29 c11 -17 34 -57 51 -90z m-138 53 c8 -13 6 -30 -8 -68
-10 -28 -16 -66 -14 -85 5 -44 -11 -46 -46 -4 -30 35 -33 74 -14 156 l12 52
30 -17 c16 -9 34 -25 40 -34z m229 -25 l18 -77 -28 -40 c-39 -56 -55 -58 -47
-8 4 28 1 50 -10 73 -9 18 -16 40 -16 50 0 17 46 79 59 79 3 0 14 -35 24 -77z
m82 -79 c-17 -32 -82 -81 -92 -70 -3 3 5 17 17 33 18 24 21 35 15 84 -6 55 -6
57 27 82 l33 27 9 -61 c8 -52 6 -67 -9 -95z m-452 110 c28 -24 32 -33 32 -78
0 -39 6 -59 23 -81 29 -37 14 -44 -33 -15 -60 37 -75 65 -75 136 0 72 7 77 53
38z m460 -221 c15 -7 27 -17 27 -21 0 -9 -103 -32 -141 -32 -18 0 -29 8 -38
26 -14 31 -16 29 34 41 44 11 75 8 118 -14z"/>
<path d="M2171 2826 c-24 -25 -49 -44 -54 -43 -14 3 -19 -24 -8 -42 9 -14 10
-13 103 70 24 21 38 41 34 48 -13 20 -31 12 -75 -33z"/>
<path d="M1775 2650 c-3 -5 -1 -10 4 -10 6 0 11 5 11 10 0 6 -2 10 -4 10 -3 0
-8 -4 -11 -10z"/>
<path d="M2281 2638 c0 -10 -7 -18 -13 -18 -9 0 -8 -4 2 -10 10 -7 -15 -8 -80
-4 -52 4 -97 8 -99 10 -2 1 12 7 30 13 19 5 26 10 17 10 -10 1 -36 -7 -59 -16
-33 -13 -50 -14 -80 -6 -21 5 -42 7 -46 3 -4 -4 -46 -10 -93 -13 -53 -4 -77
-3 -65 3 19 8 19 9 -1 9 -12 1 -24 -5 -27 -13 -5 -12 17 -15 126 -18 73 -2
193 -1 267 2 l135 5 -6 30 c-4 17 -7 22 -8 13z"/>
<path d="M1317 1913 c-21 -39 -22 -63 -2 -63 20 0 27 20 23 62 l-3 33 -18 -32z"/>
<path d="M1093 1840 c-32 -13 -29 -22 3 -10 44 17 114 12 150 -11 19 -11 34
-18 34 -15 0 4 -15 15 -32 26 -35 21 -114 26 -155 10z"/>
<path d="M1410 1843 c-8 -3 -27 -17 -42 -31 -23 -21 -30 -23 -43 -12 -8 7 -15
9 -15 5 0 -10 39 -42 74 -61 21 -12 45 -14 95 -10 98 8 99 8 106 35 5 20 0 31
-24 53 -26 23 -40 28 -84 27 -28 0 -59 -3 -67 -6z m130 -16 c65 -33 15 -87
-80 -87 -54 0 -117 31 -104 52 26 42 131 62 184 35z"/>
<path d="M1050 1780 c0 -27 29 -92 53 -118 12 -13 36 -30 52 -38 17 -8 21 -9
10 -2 -28 19 -85 77 -85 87 0 5 -3 17 -6 25 -5 14 -2 15 21 6 49 -19 135 -12
172 13 33 22 42 37 23 37 -5 0 -10 -4 -10 -8 0 -20 -61 -42 -115 -42 -49 0
-60 4 -86 29 -24 24 -29 26 -29 11z"/>
<path d="M1316 1734 c-3 -9 -6 -22 -6 -30 0 -12 3 -12 14 -2 8 7 10 14 6 16
-5 2 -6 10 -3 18 3 8 3 14 0 14 -3 0 -8 -7 -11 -16z"/>
<path d="M1310 1655 c0 -8 5 -15 10 -15 6 0 10 7 10 15 0 8 -4 15 -10 15 -5 0
-10 -7 -10 -15z"/>
<path d="M1460 1620 c-9 -6 -10 -10 -3 -10 6 0 15 5 18 10 8 12 4 12 -15 0z"/>
<path d="M1278 1593 c23 -2 61 -2 85 0 23 2 4 4 -43 4 -47 0 -66 -2 -42 -4z"/>
<path d="M1847 2240 c-15 -10 -57 -79 -57 -94 0 -3 12 0 26 6 22 11 28 10 40
-7 18 -25 18 -96 -2 -182 -25 -111 2 -170 114 -252 38 -28 58 -83 48 -135 -8
-43 -18 -50 -68 -48 -22 1 -38 -3 -38 -9 0 -16 144 -6 164 10 8 7 24 10 35 6
10 -3 22 -1 26 5 4 6 -6 10 -24 10 -30 0 -31 1 -31 45 0 50 -2 49 100 45 47
-2 65 -9 128 -51 76 -51 113 -66 132 -54 8 5 7 11 -2 22 -7 9 -12 23 -10 32 1
10 -28 39 -75 76 -102 79 -123 102 -171 182 -22 37 -73 99 -112 138 -75 72
-84 88 -101 165 -6 25 -18 55 -29 68 -21 26 -67 37 -93 22z m190 -622 c-3 -8
-6 -5 -6 6 -1 11 2 17 5 13 3 -3 4 -12 1 -19z m23 -53 c0 -14 -4 -25 -10 -25
-11 0 -14 33 -3 43 11 11 13 8 13 -18z"/>
<path d="M2770 3084 c0 -24 -69 -94 -93 -94 -27 0 -21 -12 36 -67 49 -48 54
-50 80 -39 30 13 26 26 -9 26 -12 0 -32 9 -45 19 -23 19 -24 19 -5 40 26 28
36 26 36 -6 l0 -26 25 23 c28 26 33 45 10 37 -20 -8 -29 11 -14 29 10 13 14
12 30 -2 11 -10 19 -30 19 -46 0 -35 17 -37 26 -2 6 22 -1 34 -45 77 -41 42
-51 48 -51 31z"/>
<path d="M418 3005 c-38 -42 -44 -59 -32 -89 11 -28 24 -17 24 19 0 19 3 35 6
35 17 0 84 -77 84 -97 0 -31 10 -28 43 13 27 31 27 34 9 34 -25 0 -107 74 -98
89 4 6 19 11 34 11 26 1 26 1 8 15 -28 21 -37 18 -78 -30z"/>
<path d="M2840 2800 l-53 -90 -114 0 c-62 0 -113 -2 -113 -5 0 -10 39 -83 70
-132 17 -26 30 -55 30 -65 0 -17 -51 -114 -94 -180 l-18 -28 120 0 120 0 53
-92 c39 -68 55 -88 61 -77 5 8 29 49 54 92 l45 77 114 0 c63 0 115 3 115 6 0
8 -69 133 -93 167 l-19 28 56 98 c31 55 56 102 56 105 0 3 -52 6 -115 6 l-114
0 -42 73 c-71 121 -59 120 -119 17z m80 -41 c12 -23 19 -43 17 -46 -3 -2 -26
-3 -51 -1 l-46 3 26 43 c14 23 27 42 29 42 3 0 14 -18 25 -41z m-177 -115 c6
-6 -29 -70 -44 -79 -7 -5 -59 65 -59 80 0 7 95 6 103 -1z m285 -68 l42 -73
-42 -71 -43 -71 -92 -1 -93 0 -21 43 c-12 23 -30 54 -41 69 -21 30 -20 33 39
136 l25 42 91 0 92 0 43 -74z m96 27 c-15 -27 -28 -49 -29 -51 -3 -3 -55 87
-55 94 0 2 25 4 56 4 l56 0 -28 -47z m-394 -204 l20 -39 -55 0 -56 0 17 33
c35 68 43 68 74 6z m398 6 l22 -45 -56 0 c-31 0 -54 3 -52 8 27 56 44 82 52
82 6 0 21 -21 34 -45z m-188 -114 c0 -6 -10 -26 -22 -47 -20 -34 -22 -35 -35
-18 -8 11 -21 31 -29 47 l-15 27 51 0 c27 0 50 -4 50 -9z"/>
<path d="M424 2732 l-50 -87 -117 -5 -117 -5 55 -95 c30 -52 55 -99 55 -103 0
-4 -25 -50 -55 -102 -30 -51 -55 -96 -55 -99 0 -3 53 -6 118 -6 l117 -1 48
-84 c27 -47 52 -85 56 -85 4 0 29 38 56 85 l49 85 118 0 c65 0 118 2 118 4 0
2 -25 46 -55 97 -30 52 -55 99 -55 105 0 7 25 54 55 105 l55 94 -118 3 -117 3
-50 89 c-27 50 -52 90 -55 90 -3 0 -28 -40 -56 -88z m84 -41 c12 -21 22 -41
22 -45 0 -3 -22 -6 -50 -6 -27 0 -50 3 -50 6 0 11 43 84 50 84 3 0 16 -17 28
-39z m-178 -115 c0 -10 -44 -86 -50 -86 -7 0 -50 73 -50 84 0 3 23 6 50 6 28
0 50 -2 50 -4z m260 -28 c11 -18 29 -51 41 -73 l21 -40 -42 -73 -42 -73 -91 3
-91 3 -40 69 -40 69 40 74 39 73 93 0 92 0 20 -32z m138 25 c-24 -50 -43 -83
-48 -83 -7 0 -50 73 -50 84 0 3 23 6 51 6 28 0 49 -3 47 -7z m-418 -233 c11
-22 20 -42 20 -45 0 -3 -22 -5 -50 -5 -27 0 -50 3 -50 8 0 16 45 90 52 86 5
-3 17 -23 28 -44z m400 0 c11 -22 20 -42 20 -45 0 -3 -22 -5 -50 -5 -27 0 -50
3 -50 8 0 16 45 90 52 86 5 -3 17 -23 28 -44z m-180 -115 c0 -11 -45 -75 -53
-75 -8 0 -47 60 -47 73 0 4 23 7 50 7 28 0 50 -2 50 -5z"/>
<path d="M412 1971 c-135 -11 -195 -20 -201 -29 -10 -17 -47 -223 -63 -357
-16 -132 -15 -498 1 -600 48 -307 154 -467 392 -593 190 -101 293 -130 486
-139 150 -7 250 6 354 43 81 29 89 29 168 3 83 -28 133 -77 157 -155 17 -54
21 -59 48 -59 32 0 37 7 60 85 25 89 68 147 129 175 64 30 120 32 189 4 268
-107 578 -103 768 11 154 92 308 254 387 405 64 125 74 173 80 394 10 373 -37
689 -118 794 -13 16 -30 16 -304 3 -159 -8 -298 -17 -307 -21 -23 -9 -22 -30
2 -140 90 -417 53 -698 -107 -792 -41 -24 -58 -27 -202 -34 -201 -11 -304 -24
-418 -54 -98 -26 -161 -53 -182 -79 -12 -14 -18 -12 -52 19 -88 79 -177 105
-358 105 -129 -1 -208 -11 -313 -40 -43 -13 -49 -12 -95 11 -42 22 -53 34 -85
99 -64 129 -68 195 -33 538 17 158 30 316 30 352 l0 65 -110 1 c-60 1 -197 -6
-303 -15z m380 -62 c-5 -73 -51 -531 -57 -569 -8 -46 11 -200 31 -265 39 -121
111 -195 190 -195 23 0 82 10 131 22 70 17 118 22 233 22 129 0 152 -2 205
-23 80 -32 126 -62 163 -106 l30 -37 16 24 c52 79 331 148 598 148 228 0 327
75 373 284 25 113 16 349 -20 544 -15 79 -25 145 -23 147 2 2 126 9 277 16
236 10 275 10 287 -3 24 -23 62 -146 79 -251 35 -220 38 -636 4 -752 -17 -61
-86 -194 -130 -250 -63 -81 -91 -110 -178 -183 -152 -129 -270 -172 -468 -172
-129 0 -225 17 -351 62 -152 55 -253 40 -334 -50 -33 -36 -78 -133 -78 -167 0
-44 -14 -43 -30 4 -34 102 -116 169 -234 191 -56 10 -66 9 -129 -14 -158 -60
-345 -69 -526 -26 -180 43 -392 154 -484 252 -148 158 -205 389 -194 787 6
222 46 543 70 568 10 9 467 43 527 38 23 -2 25 -5 22 -46z"/>
<path d="M449 1853 c-19 -5 -35 -35 -44 -80 -6 -29 -4 -33 14 -33 11 0 25 9
31 19 14 27 13 34 -6 27 -11 -4 -14 -1 -12 12 2 11 11 16 23 14 35 -6 40 -21
17 -42 -25 -24 -28 -40 -8 -40 40 0 57 92 21 114 -11 7 -27 11 -36 9z"/>
<path d="M3072 1823 c3 -23 -1 -29 -22 -31 -32 -5 -41 -14 -31 -31 7 -10 18
-11 47 -4 40 10 41 12 29 71 -7 32 -26 27 -23 -5z"/>
<path d="M3060 1732 c-21 -7 -30 -23 -30 -55 0 -66 53 -92 86 -42 27 42 -13
113 -56 97z m43 -51 c6 -25 0 -31 -30 -31 -16 0 -23 6 -23 19 0 17 10 24 41
30 4 0 9 -8 12 -18z"/>
<path d="M382 1695 c-24 -53 -9 -95 34 -95 27 0 42 18 50 58 8 39 -9 62 -46
62 -19 0 -30 -7 -38 -25z m48 -15 c25 -14 15 -40 -16 -40 -17 0 -24 6 -24 18
0 31 11 37 40 22z"/>
<path d="M3068 1589 c-35 -20 -15 -119 23 -119 6 0 19 5 30 10 28 16 27 84 -3
104 -26 19 -27 19 -50 5z m52 -54 c0 -20 -5 -25 -25 -25 -18 0 -25 5 -25 18 0
24 8 32 32 32 13 0 18 -7 18 -25z"/>
<path d="M343 1545 c-8 -36 -8 -45 3 -45 8 0 14 10 14 21 0 20 4 21 40 15 35
-5 40 -4 40 13 0 12 -9 21 -27 25 -16 4 -35 9 -44 12 -12 3 -18 -7 -26 -41z"/>
<path d="M327 1443 c-12 -70 44 -111 78 -59 9 14 15 39 13 58 -3 31 -6 33 -44
36 -41 3 -41 2 -47 -35z m71 -20 c-2 -10 -13 -19 -26 -21 -17 -3 -22 2 -22 17
0 16 6 21 26 21 19 0 25 -5 22 -17z"/>
<path d="M3060 1430 c0 -11 7 -20 15 -20 8 0 15 -9 15 -20 0 -11 -7 -20 -15
-20 -8 0 -15 -7 -15 -15 0 -11 12 -15 45 -15 38 0 45 3 45 20 0 14 -7 20 -21
20 -14 0 -19 5 -17 18 2 10 11 16 21 14 11 -2 17 4 17 18 0 17 -6 20 -45 20
-38 0 -45 -3 -45 -20z"/>
<path d="M319 1338 c-1 -2 -3 -27 -5 -55 -4 -43 -2 -53 11 -53 11 0 15 11 15
41 0 44 19 46 21 1 2 -24 2 -24 6 -4 6 32 23 27 23 -8 0 -16 5 -30 10 -30 6 0
10 25 10 55 l0 55 -45 0 c-25 0 -45 -1 -46 -2z"/>
<path d="M3052 1285 c-17 -36 -15 -59 6 -78 25 -23 48 -21 66 5 21 29 20 72
-1 89 -15 13 -16 11 -9 -23 7 -40 -3 -53 -34 -43 -24 7 -26 30 -5 39 19 7 20
36 2 36 -8 0 -19 -11 -25 -25z"/>
<path d="M320 1196 c0 -8 12 -16 26 -18 l25 -3 -20 -22 c-32 -34 -28 -63 8
-63 38 0 61 9 61 25 0 8 -9 11 -27 7 l-28 -5 23 25 c12 13 22 34 22 46 0 19
-5 22 -45 22 -32 0 -45 -4 -45 -14z"/>
<path d="M3022 1148 c-6 -13 -12 -30 -13 -38 -6 -61 21 -67 53 -13 12 20 24
31 26 25 2 -6 -4 -22 -14 -37 -19 -30 -11 -46 12 -23 20 20 30 93 15 103 -7 4
-19 1 -28 -7 -13 -10 -17 -10 -20 0 -7 18 -18 15 -31 -10z m22 -33 c-4 -8 -10
-15 -15 -15 -4 0 -6 7 -3 15 4 8 10 15 15 15 4 0 6 -7 3 -15z"/>
<path d="M403 1004 c-3 -8 0 -27 6 -41 13 -27 9 -39 -8 -28 -6 3 -11 19 -11
36 0 16 -4 29 -10 29 -16 0 -12 -49 7 -81 20 -33 49 -38 58 -10 4 13 12 18 22
14 13 -5 15 -1 9 23 -15 62 -58 96 -73 58z m47 -40 c0 -8 -4 -12 -10 -9 -5 3
-10 10 -10 16 0 5 5 9 10 9 6 0 10 -7 10 -16z"/>
<path d="M2921 956 c-23 -37 -20 -61 11 -77 27 -15 50 -4 76 37 20 31 22 38
10 50 -12 12 -18 11 -39 -12 -18 -21 -20 -26 -6 -21 11 4 17 1 17 -7 0 -20
-23 -26 -43 -11 -24 17 -21 34 8 45 30 11 33 30 6 30 -11 0 -28 -14 -40 -34z"/>
<path d="M466 876 c-24 -18 -28 -28 -22 -49 3 -15 17 -34 31 -43 23 -15 26
-14 54 5 19 13 28 27 24 36 -5 16 -23 21 -23 7 0 -16 -42 -34 -53 -23 -8 8 -3
19 16 39 23 23 25 31 14 40 -10 8 -20 5 -41 -12z"/>
<path d="M2860 894 c0 -3 5 -14 10 -25 10 -18 8 -19 -27 -14 -58 9 -69 -4 -43
-48 21 -36 59 -54 46 -22 -3 8 -9 22 -12 30 -5 13 -2 14 21 5 29 -11 65 -5 65
11 0 13 -42 69 -52 69 -4 0 -8 -3 -8 -6z"/>
<path d="M2734 816 c-3 -7 5 -30 17 -50 16 -28 24 -34 35 -26 11 10 9 19 -8
51 -21 40 -35 49 -44 25z"/>
<path d="M548 765 c-16 -18 -28 -36 -28 -39 0 -12 24 -6 42 11 17 15 18 15 18
-13 0 -16 7 -38 15 -49 15 -18 16 -18 44 15 19 23 26 38 20 45 -7 7 -15 4 -23
-7 -16 -22 -26 -13 -26 22 0 24 -16 51 -29 49 -4 0 -18 -15 -33 -34z"/>
<path d="M2643 775 c-37 -16 -39 -24 -18 -65 18 -34 25 -36 65 -15 34 17 45
46 30 75 -12 23 -32 25 -77 5z m47 -47 c0 -10 -6 -18 -14 -18 -20 0 -32 40
-15 51 15 9 29 -7 29 -33z"/>
<path d="M2513 718 c-26 -13 -27 -19 -11 -65 13 -36 44 -47 35 -12 -6 22 24
42 31 21 5 -17 42 -15 42 2 0 8 -4 18 -10 21 -5 3 -10 15 -10 26 0 14 -7 19
-27 18 -16 0 -38 -5 -50 -11z m47 -18 c0 -5 -7 -10 -15 -10 -8 0 -15 5 -15 10
0 6 7 10 15 10 8 0 15 -4 15 -10z"/>
<path d="M687 697 c-13 -9 -18 -23 -15 -42 2 -25 10 -32 50 -47 46 -17 47 -17
53 3 8 24 8 24 -24 34 -20 6 -23 4 -18 -9 7 -18 -4 -21 -20 -5 -15 15 -4 49
17 49 10 0 20 -7 24 -15 6 -16 36 -21 36 -7 0 32 -75 60 -103 39z"/>
<path d="M2400 671 c-16 -31 -13 -91 5 -91 8 0 15 6 15 14 0 17 24 28 36 16 5
-4 17 -5 27 -1 15 6 14 10 -14 44 -34 41 -53 46 -69 18z"/>
<path d="M818 625 c-36 -42 -35 -47 7 -39 28 5 35 3 35 -10 0 -10 8 -16 21
-16 20 0 21 4 15 42 -4 22 -9 45 -12 50 -11 17 -40 5 -66 -27z m42 -11 c0 -8
-5 -12 -10 -9 -6 4 -8 11 -5 16 9 14 15 11 15 -7z"/>
<path d="M2295 653 c-26 -7 -55 -33 -55 -50 0 -26 40 -55 68 -48 26 6 62 38
62 56 0 12 -38 49 -47 48 -5 -1 -17 -4 -28 -6z m29 -39 c10 -25 7 -31 -13 -37
-20 -5 -31 10 -31 39 0 19 36 18 44 -2z"/>
<path d="M935 602 c6 -43 18 -61 37 -62 8 0 58 71 58 82 0 19 -28 5 -41 -19
l-13 -28 -4 31 c-2 22 -10 34 -24 37 -19 5 -20 3 -13 -41z"/>
<path d="M1050 588 c-27 -44 -25 -51 10 -43 17 4 30 2 30 -3 0 -12 29 -24 40
-17 4 2 3 25 -3 50 -9 38 -14 45 -34 45 -16 0 -30 -11 -43 -32z m37 -10 c-3
-8 -6 -5 -6 6 -1 11 2 17 5 13 3 -3 4 -12 1 -19z"/>
<path d="M2142 609 c-31 -9 -32 -11 -26 -47 9 -51 9 -51 56 -40 56 12 75 28
55 43 -9 6 -15 20 -14 31 2 23 -22 27 -71 13z m32 -18 c3 -5 -1 -11 -9 -15
-15 -6 -29 7 -18 18 9 9 21 8 27 -3z m26 -41 c0 -5 -9 -10 -20 -10 -11 0 -20
5 -20 10 0 6 9 10 20 10 11 0 20 -4 20 -10z"/>
<path d="M1217 558 c-3 -24 -3 -46 1 -50 13 -13 95 -13 100 0 2 8 -8 12 -32
12 -19 0 -38 5 -41 10 -4 6 8 10 30 10 22 0 34 4 30 10 -3 6 -15 10 -26 10
-10 0 -19 5 -19 11 0 7 11 9 30 6 16 -4 32 -3 34 2 3 5 -11 11 -32 15 -66 11
-69 9 -75 -36z"/>
<path d="M1345 577 c-11 -36 -10 -87 2 -87 7 0 13 9 13 19 0 31 18 34 35 7 9
-13 25 -26 35 -29 16 -4 21 2 26 29 7 38 -1 68 -16 59 -5 -3 -10 -16 -10 -28
0 -21 -1 -21 -23 4 -26 31 -56 44 -62 26z"/>
<path d="M1995 580 c-3 -5 -4 -14 -1 -19 7 -11 -22 -23 -35 -15 -5 3 -9 12 -9
20 0 16 -16 19 -25 4 -4 -6 -4 -29 0 -51 5 -30 11 -39 23 -37 10 2 18 13 20
26 4 27 30 29 40 2 5 -12 12 -16 20 -11 17 10 5 91 -14 91 -7 0 -16 -4 -19
-10z"/>
<path d="M1730 531 c0 -45 3 -51 21 -51 18 0 20 5 17 47 -2 36 -7 49 -20 51
-15 3 -18 -4 -18 -47z"/>
<path d="M1492 558 c-17 -17 -15 -65 4 -72 9 -3 36 -6 60 -6 36 0 44 3 44 19
0 12 -9 20 -27 24 -32 6 -44 0 -24 -12 10 -7 10 -9 -2 -14 -20 -7 -27 1 -27
31 0 22 2 23 42 17 39 -7 41 -6 29 9 -16 19 -81 22 -99 4z"/>
<path d="M1622 528 l3 -43 48 -3 c50 -3 67 14 20 20 -23 2 -29 8 -31 36 -3 24
-8 32 -23 32 -17 0 -20 -6 -17 -42z"/>
<path d="M1790 560 c-23 -15 1 -44 39 -48 17 -2 31 -8 31 -13 0 -5 -17 -6 -42
-3 -28 5 -39 4 -34 -4 10 -17 60 -24 90 -12 39 14 30 42 -17 55 -21 6 -35 14
-31 17 3 4 17 2 30 -4 26 -12 40 -6 29 11 -8 14 -75 14 -95 1z"/>
<path d="M1333 1293 c-13 -2 -31 -15 -42 -29 -24 -31 -44 -31 -65 1 -19 30
-50 32 -68 6 -9 -13 -30 -20 -70 -23 -32 -3 -58 -1 -58 3 0 4 -7 15 -16 23
-16 16 -124 23 -158 10 -18 -7 -22 -59 -6 -69 13 -8 13 -52 0 -60 -6 -3 -10
-19 -10 -35 0 -39 15 -42 165 -36 118 5 135 6 195 6 17 -1 38 -1 48 -1 9 0 44
-2 78 -5 43 -4 63 -2 71 8 17 19 2 186 -17 198 -8 6 -17 9 -20 8 -3 0 -15 -3
-27 -5z m37 -93 c0 -40 4 -70 10 -70 6 0 10 -4 10 -10 0 -14 -114 -12 -128 2
-16 16 -16 70 0 86 7 7 25 12 41 12 26 0 28 2 16 16 -10 13 -10 17 2 25 8 5
22 9 32 9 15 0 17 -10 17 -70z m-360 39 c15 -27 5 -37 -20 -21 -19 11 -20 9
-20 -28 0 -44 -6 -49 -26 -22 -12 15 -13 14 -14 -10 0 -34 17 -36 54 -7 32 25
44 19 28 -16 -11 -23 -17 -25 -82 -25 -64 0 -86 9 -60 25 6 3 10 26 10 50 0
24 -4 47 -10 50 -26 16 -4 25 60 25 60 0 71 -3 80 -21z m193 1 c3 -11 11 -19
17 -18 7 2 15 -3 17 -9 3 -8 -4 -13 -16 -13 -17 0 -21 -6 -21 -30 0 -23 4 -30
20 -30 28 0 25 -18 -5 -26 -41 -10 -55 1 -55 46 0 24 -5 40 -12 40 -6 0 -4 7
5 18 10 10 17 24 17 30 0 20 27 13 33 -8z m-73 -36 c0 -12 -7 -14 -31 -9 -20
5 -29 3 -25 -3 3 -5 19 -12 36 -15 20 -5 30 -12 30 -25 0 -29 -21 -42 -67 -42
-36 0 -43 3 -43 20 0 11 5 20 10 20 6 0 5 8 -2 19 -18 29 5 51 53 51 29 0 39
-4 39 -16z"/>
<path d="M1297 1194 c-10 -10 -9 -52 1 -58 15 -9 34 11 30 34 -3 24 -19 36
-31 24z"/>
<path d="M933 1225 c-8 -22 6 -33 17 -15 13 20 12 30 0 30 -6 0 -13 -7 -17
-15z"/>
<path d="M1070 1140 c19 -13 30 -13 30 0 0 6 -10 10 -22 10 -19 0 -20 -2 -8
-10z"/>
<path d="M1825 1293 c-27 -3 -55 -9 -62 -14 -8 -7 -18 -7 -32 0 -28 16 -63 14
-90 -5 -21 -15 -25 -15 -55 1 -60 33 -136 -1 -136 -60 0 -12 5 -26 12 -33 9
-9 9 -15 0 -24 -18 -18 -14 -56 7 -68 26 -13 124 -13 138 1 8 8 21 8 46 -2 29
-10 43 -10 75 0 29 10 44 10 60 2 27 -15 61 -13 91 3 21 11 30 11 59 -1 44
-18 92 -10 121 21 19 20 21 30 15 80 -10 83 -56 114 -129 86 -20 -8 -30 -7
-41 5 -9 8 -18 14 -22 13 -4 -1 -29 -3 -57 -5z m63 -40 c-2 -13 -15 -19 -46
-21 -54 -4 -55 -20 -2 -18 45 1 60 -13 60 -56 0 -31 -24 -48 -65 -48 -37 0
-65 17 -65 40 0 27 36 26 43 0 7 -28 39 -15 35 14 -2 17 -9 21 -36 18 -31 -2
-32 -1 -32 37 l0 40 48 4 c26 2 51 4 55 5 5 1 7 -6 5 -15z m-304 -6 c27 -20
16 -58 -23 -84 -28 -19 -30 -23 -13 -23 11 0 24 5 27 10 11 19 25 10 25 -15 0
-25 -1 -26 -62 -23 -34 2 -63 8 -64 13 -2 6 15 23 37 38 30 20 39 33 37 50 -4
27 -33 29 -33 2 0 -22 -29 -33 -40 -15 -4 6 1 22 9 35 19 28 70 34 100 12z
m156 -7 c45 -45 13 -130 -50 -130 -41 0 -70 31 -70 75 0 44 29 75 70 75 17 0
39 -9 50 -20z m296 6 c15 -12 17 -18 8 -33 -9 -14 -8 -23 3 -40 13 -19 12 -24
-6 -42 -14 -14 -34 -21 -59 -21 -41 0 -62 14 -62 42 0 24 27 23 40 -2 12 -22
40 -16 40 9 0 9 -16 23 -40 34 -41 17 -49 34 -28 55 17 17 80 15 104 -2z"/>
<path d="M1670 1185 c0 -38 3 -45 19 -45 21 0 29 20 23 63 -3 18 -10 27 -23
27 -16 0 -19 -8 -19 -45z"/>
<path d="M1973 1233 c-20 -7 -15 -23 7 -23 11 0 20 4 20 9 0 13 -12 19 -27 14z"/>
<path d="M2123 1279 c-16 -16 -17 -45 -3 -54 6 -3 10 -21 10 -40 0 -19 -4 -37
-10 -40 -17 -11 -11 -44 11 -55 13 -7 45 -9 82 -6 81 7 79 7 172 1 44 -3 93
-1 108 4 19 7 36 7 53 -1 21 -10 28 -8 46 10 19 18 20 25 10 47 -7 14 -20 25
-31 25 -23 0 -30 10 -37 47 -9 46 -22 60 -64 67 -27 4 -50 2 -69 -8 -32 -17
-41 -34 -41 -77 0 -24 -4 -28 -22 -25 -18 2 -24 10 -26 38 -5 53 -31 72 -110
76 -46 2 -71 0 -79 -9z m154 -31 c12 -20 13 -111 1 -125 -16 -20 -138 -18
-138 2 0 8 5 15 10 15 6 0 10 20 10 44 0 25 -4 48 -10 51 -25 16 -5 25 54 25
41 0 68 -5 73 -12z m207 2 c14 -5 26 -16 26 -25 0 -19 0 -19 -39 1 -24 12 -36
13 -44 5 -11 -11 -6 -14 53 -29 27 -6 36 -14 38 -34 5 -38 -22 -58 -78 -58
-43 0 -48 2 -52 25 -7 34 0 37 32 13 27 -20 60 -19 60 1 0 10 -10 14 -61 25
-32 7 -42 37 -22 65 15 23 47 27 87 11z m-126 -117 c5 -17 -26 -29 -40 -15 -6
6 -7 15 -3 22 9 14 37 9 43 -7z m222 -3 c0 -13 -7 -20 -20 -20 -19 0 -27 20
-13 33 13 14 33 6 33 -13z"/>
<path d="M2200 1220 c0 -11 6 -20 14 -20 21 0 31 21 15 31 -22 14 -29 11 -29
-11z"/>
<path d="M2200 1161 c0 -26 17 -36 36 -21 11 10 12 16 3 26 -17 20 -39 17 -39
-5z"/>
</g>
</svg>
